<?xml version="1.0" encoding="utf-8"?>
<!DOCTYPE svg PUBLIC "-//W3C//DTD SVG 1.1//EN" "http://www.w3.org/Graphics/SVG/1.1/DTD/svg11.dtd">
<svg version="1.1" xmlns="http://www.w3.org/2000/svg" xmlns:xlink="http://www.w3.org/1999/xlink" x="0px" y="0px" width="400px" height="400px" viewBox="0 0 400 400" enable-background="new 0 0 400 400" xml:space="preserve">
<g id="stars1">
	<path fill="#FFFFFF" d="M110.4,155.8c1.9,0,1.9-3,0-3S108.5,155.8,110.4,155.8L110.4,155.8z"/>
	<path fill="#FFFFFF" d="M180,112.2c1.9,0,1.9-3,0-3S178.1,112.2,180,112.2L180,112.2z"/>
	<path fill="#FFFFFF" d="M314.3,202.5c1.9,0,1.9-3,0-3S312.4,202.5,314.3,202.5L314.3,202.5z"/>
	<path fill="#FFFFFF" d="M217.1,271.6c1.9,0,1.9-3,0-3S215.2,271.6,217.1,271.6L217.1,271.6z"/>
	<path fill="#FFFFFF" d="M56,295.6c1.9,0,1.9-3,0-3S54.1,295.6,56,295.6L56,295.6z"/>
	<path fill="#FFFFFF" d="M355.4,366.5c1.9,0,1.9-3,0-3S353.5,366.5,355.4,366.5L355.4,366.5z"/>
	<path fill="#FFFFFF" d="M340,69.9c1.9,0,1.9-3,0-3S338.1,69.9,340,69.9L340,69.9z"/>
	<path fill="#FFFFFF" d="M46.3,56.8c1.9,0,1.9-3,0-3S44.4,56.8,46.3,56.8L46.3,56.8z"/>
	<path fill="#FFFFFF" d="M119.4,387.1c1.9,0,1.9-3,0-3S117.5,387.1,119.4,387.1L119.4,387.1z"/>
</g>
</svg>
